<svg width="1053" height="1053" viewBox="0 0 1053 1053" fill="none" xmlns="http://www.w3.org/2000/svg">
<g clip-path="url(#clip0_15_25)">
<mask id="mask0_15_25" style="mask-type:luminance" maskUnits="userSpaceOnUse" x="331" y="-1" width="352" height="494">
<path d="M331.667 -0.307251H682.333V492.667H331.667V-0.307251Z" fill="white"/>
</mask>
<g mask="url(#mask0_15_25)">
<path fill-rule="evenodd" clip-rule="evenodd" d="M510.562 -0.307251C550.818 -0.307251 583.677 32.5573 583.677 72.823C583.677 113.495 550.818 146.365 510.562 146.365C469.901 146.365 437.453 113.495 437.453 72.823C437.453 32.5573 469.901 -0.307251 510.562 -0.307251ZM422.667 125.823C384.057 126.229 368.448 133.625 351.198 167.729C313.818 240.448 335.177 329.188 381.589 392.047C412.807 434.365 455.526 468.875 514.26 492.297C472.776 446.281 437.042 399.031 415.271 349.323C491.672 373.563 521.656 335.76 559.443 280.708C591.479 233.875 632.552 200.594 681.844 179.229C676.505 165.672 669.932 152.938 661.719 142.667C646.521 123.766 625.984 113.906 601.339 120.068C584.495 152.938 549.995 175.531 510.562 175.531C473.187 175.531 440.74 155.401 422.667 125.823Z" fill="#029E27"/>
</g>
<mask id="mask1_15_25" style="mask-type:luminance" maskUnits="userSpaceOnUse" x="53" y="216" width="440" height="372">
<path d="M53.4062 216.667H493V587.333H53.4062V216.667Z" fill="white"/>
</mask>
<g mask="url(#mask1_15_25)">
<path fill-rule="evenodd" clip-rule="evenodd" d="M63.2656 277.422C83.3906 242.5 128.161 230.589 163.078 250.719C198.401 270.849 210.312 315.63 190.187 350.964C169.646 385.885 124.875 397.802 89.9635 377.672C55.0521 357.536 43.1406 312.755 63.2656 277.422ZM128.573 416.698C109.682 450.391 108.448 467.646 128.984 499.693C173.344 568.302 260.833 594.188 338.464 585.557C390.625 579.807 441.969 560.083 491.672 520.646C430.88 533.38 372.146 541.188 318.339 535.026C377.484 480.792 359.823 436.01 331.068 376.026C306.427 324.26 298.208 272.083 304.37 219.083C289.583 216.62 275.62 216.208 262.885 217.849C238.651 221.958 220.172 234.693 213.187 258.932C232.901 290.161 235.365 331.245 215.24 365.344C196.755 397.802 163.078 416.286 128.573 416.698Z" fill="#037CBD"/>
</g>
<path fill-rule="evenodd" clip-rule="evenodd" d="M80.1041 804.13C59.9791 768.797 71.8906 724.011 106.802 703.88C142.13 683.75 186.901 695.667 207.026 730.589C227.151 765.922 215.24 810.703 180.328 830.833C145.005 850.964 100.234 839.052 80.1041 804.13ZM233.312 816.865C253.031 850.552 267.406 860.005 305.193 858.359C386.932 854.25 453.057 790.979 484.276 719.495C505.635 671.427 513.849 617.193 504.812 554.745C485.51 613.495 462.917 668.136 430.469 711.688C413.219 633.214 365.573 626.229 299.031 621.302C242.349 616.781 193.062 597.885 149.932 565.839C140.896 577.339 133.094 589.255 128.573 601.578C119.536 624.177 121.182 646.776 139.255 664.849C176.219 663.208 212.776 681.698 232.49 716.208C250.974 748.255 250.151 786.464 233.312 816.865Z" fill="#5850A1"/>
<mask id="mask2_15_25" style="mask-type:luminance" maskUnits="userSpaceOnUse" x="373" y="559" width="351" height="494">
<path d="M373 559.333H723.667V1052.69H373V559.333Z" fill="white"/>
</mask>
<g mask="url(#mask2_15_25)">
<path fill-rule="evenodd" clip-rule="evenodd" d="M544.656 1052.69C503.99 1052.69 471.13 1019.82 471.13 979.151C471.13 938.885 503.99 906.016 544.656 906.016C584.906 906.016 617.766 938.885 617.766 979.151C617.766 1019.82 584.906 1052.69 544.656 1052.69ZM632.141 926.562C671.161 926.151 686.771 918.344 704.021 884.656C740.99 811.932 719.63 723.193 673.63 660.333C642.411 617.604 599.693 583.094 540.958 560.083C582.031 606.099 618.177 652.937 639.536 702.651C563.141 678.411 533.568 716.208 495.776 771.26C463.328 818.099 422.255 851.786 373.375 873.151C378.714 886.708 384.875 899.443 393.094 909.307C408.286 928.615 428.828 938.062 453.469 931.901C470.724 899.031 504.813 876.849 544.656 876.849C581.62 876.849 614.479 896.568 632.141 926.562Z" fill="#E80753"/>
</g>
<mask id="mask3_15_25" style="mask-type:luminance" maskUnits="userSpaceOnUse" x="562" y="464" width="440" height="372">
<path d="M562.333 464.667H1001.41V835.333H562.333V464.667Z" fill="white"/>
</mask>
<g mask="url(#mask3_15_25)">
<path fill-rule="evenodd" clip-rule="evenodd" d="M991.953 774.547C971.417 809.469 926.646 821.797 891.734 801.25C856.818 781.12 844.906 736.339 865.031 701.417C885.161 666.495 929.932 654.167 964.844 674.714C1000.17 694.844 1012.08 739.625 991.953 774.547ZM926.646 635.271C945.536 601.578 946.771 584.323 926.234 552.688C881.875 484.078 793.974 458.193 716.755 466.823C664.182 472.573 612.839 492.297 563.547 531.328C623.927 519 682.667 511.193 736.474 517.359C677.323 571.589 694.984 615.958 723.74 676.354C748.385 727.708 756.599 779.891 750.849 833.297C765.224 835.354 779.188 836.172 792.333 834.12C816.568 830.422 835.052 817.688 842.031 793.036C821.906 761.813 819.854 721.135 839.568 686.625C858.052 654.578 891.734 636.094 926.646 635.271Z" fill="#FF5713"/>
</g>
<path fill-rule="evenodd" clip-rule="evenodd" d="M974.703 248.255C994.828 283.177 982.917 327.958 948.005 348.089C913.089 368.63 868.318 356.307 847.781 321.385C827.656 286.464 839.568 241.677 874.891 221.547C909.802 201.005 954.573 213.328 974.703 248.255ZM821.495 235.104C801.781 201.828 787.401 191.969 749.615 194.021C668.286 198.13 602.161 260.99 570.531 332.474C549.583 380.958 540.958 435.187 549.995 497.635C569.302 438.885 592.302 384.245 624.339 340.693C641.589 419.167 689.234 425.74 755.776 431.078C812.458 435.599 862.156 454.5 904.875 486.13C914.323 474.63 921.714 463.125 926.646 450.802C935.271 428.203 933.625 405.609 915.964 387.12C879 388.76 842.443 370.276 822.729 336.172C803.833 303.719 805.068 265.51 821.495 235.104Z" fill="#FCAD14"/>
</g>
<defs>
<clipPath id="clip0_15_25">
<rect width="1053" height="1053" fill="white"/>
</clipPath>
</defs>
</svg>
