<svg width="1053" height="1053" viewBox="0 0 1053 1053" fill="none" xmlns="http://www.w3.org/2000/svg">
<g clip-path="url(#clip0_723_57)">
<mask id="mask0_723_57" style="mask-type:luminance" maskUnits="userSpaceOnUse" x="0" y="0" width="1053" height="1053">
<path d="M1053 0H0V1053H1053V0Z" fill="white"/>
</mask>
<g mask="url(#mask0_723_57)">
<mask id="mask1_723_57" style="mask-type:luminance" maskUnits="userSpaceOnUse" x="331" y="-1" width="352" height="494">
<path d="M331.668 -0.307617H682.334V492.667H331.668V-0.307617Z" fill="white"/>
</mask>
<g mask="url(#mask1_723_57)">
<path fill-rule="evenodd" clip-rule="evenodd" d="M510.563 -0.307617C550.819 -0.307617 583.678 32.5569 583.678 72.8226C583.678 113.495 550.819 146.365 510.563 146.365C469.902 146.365 437.454 113.495 437.454 72.8226C437.454 32.5569 469.902 -0.307617 510.563 -0.307617ZM422.668 125.823C384.058 126.229 368.449 133.625 351.199 167.729C313.819 240.448 335.178 329.188 381.59 392.047C412.808 434.365 455.527 468.875 514.261 492.297C472.777 446.281 437.043 399.031 415.272 349.323C491.673 373.563 521.657 335.76 559.444 280.708C591.48 233.875 632.553 200.594 681.845 179.229C676.506 165.672 669.933 152.938 661.72 142.667C646.522 123.766 625.985 113.906 601.34 120.068C584.496 152.938 549.996 175.531 510.563 175.531C473.188 175.531 440.741 155.401 422.668 125.823Z" fill="#029E27"/>
</g>
<mask id="mask2_723_57" style="mask-type:luminance" maskUnits="userSpaceOnUse" x="53" y="216" width="440" height="372">
<path d="M53.4062 216.667H493V587.333H53.4062V216.667Z" fill="white"/>
</mask>
<g mask="url(#mask2_723_57)">
<path fill-rule="evenodd" clip-rule="evenodd" d="M63.2666 277.422C83.3916 242.5 128.162 230.589 163.079 250.719C198.402 270.849 210.313 315.63 190.188 350.964C169.647 385.885 124.876 397.802 89.9645 377.672C55.0531 357.536 43.1416 312.755 63.2666 277.422ZM128.574 416.698C109.683 450.391 108.449 467.646 128.985 499.693C173.345 568.302 260.834 594.188 338.465 585.557C390.626 579.807 441.97 560.083 491.673 520.646C430.881 533.38 372.147 541.188 318.34 535.026C377.485 480.792 359.824 436.01 331.069 376.026C306.428 324.26 298.209 272.083 304.371 219.083C289.584 216.62 275.621 216.208 262.886 217.849C238.652 221.958 220.173 234.693 213.188 258.932C232.902 290.161 235.366 331.245 215.241 365.344C196.756 397.802 163.079 416.286 128.574 416.698Z" fill="#037CBD"/>
</g>
<path fill-rule="evenodd" clip-rule="evenodd" d="M80.1045 804.129C59.9795 768.796 71.891 724.01 106.802 703.879C142.13 683.749 186.901 695.666 207.026 730.588C227.151 765.921 215.24 810.702 180.328 830.832C145.005 850.963 100.234 839.051 80.1045 804.129ZM233.312 816.864C253.031 850.551 267.406 860.004 305.193 858.358C386.932 854.249 453.057 790.978 484.276 719.494C505.635 671.426 513.849 617.192 504.812 554.744C485.51 613.494 462.917 668.135 430.469 711.687C413.219 633.213 365.573 626.228 299.031 621.301C242.349 616.78 193.062 597.884 149.932 565.838C140.896 577.338 133.094 589.254 128.573 601.577C119.536 624.176 121.182 646.775 139.255 664.848C176.219 663.207 212.776 681.697 232.49 716.207C250.974 748.254 250.151 786.463 233.312 816.864Z" fill="#5850A1"/>
<mask id="mask3_723_57" style="mask-type:luminance" maskUnits="userSpaceOnUse" x="373" y="559" width="351" height="494">
<path d="M373 559.333H723.667V1052.69H373V559.333Z" fill="white"/>
</mask>
<g mask="url(#mask3_723_57)">
<path fill-rule="evenodd" clip-rule="evenodd" d="M544.656 1052.69C503.99 1052.69 471.13 1019.82 471.13 979.151C471.13 938.885 503.99 906.016 544.656 906.016C584.906 906.016 617.766 938.885 617.766 979.151C617.766 1019.82 584.906 1052.69 544.656 1052.69ZM632.141 926.562C671.161 926.151 686.771 918.344 704.021 884.656C740.99 811.932 719.63 723.193 673.63 660.333C642.411 617.604 599.693 583.094 540.958 560.083C582.031 606.099 618.177 652.937 639.536 702.651C563.141 678.411 533.568 716.208 495.776 771.26C463.328 818.099 422.255 851.786 373.375 873.151C378.714 886.708 384.875 899.443 393.094 909.307C408.286 928.615 428.828 938.062 453.469 931.901C470.724 899.031 504.813 876.849 544.656 876.849C581.62 876.849 614.479 896.568 632.141 926.562Z" fill="#E80753"/>
</g>
<mask id="mask4_723_57" style="mask-type:luminance" maskUnits="userSpaceOnUse" x="562" y="464" width="440" height="372">
<path d="M562.334 464.667H1001.41V835.333H562.334V464.667Z" fill="white"/>
</mask>
<g mask="url(#mask4_723_57)">
<path fill-rule="evenodd" clip-rule="evenodd" d="M991.955 774.547C971.419 809.469 926.648 821.797 891.736 801.25C856.82 781.12 844.908 736.339 865.033 701.417C885.163 666.495 929.934 654.167 964.846 674.714C1000.17 694.844 1012.08 739.625 991.955 774.547ZM926.648 635.271C945.538 601.578 946.773 584.323 926.236 552.688C881.877 484.078 793.976 458.193 716.757 466.823C664.184 472.573 612.841 492.297 563.549 531.328C623.929 519 682.669 511.193 736.476 517.359C677.325 571.589 694.986 615.958 723.742 676.354C748.387 727.708 756.601 779.891 750.851 833.297C765.226 835.354 779.19 836.172 792.335 834.12C816.57 830.422 835.054 817.688 842.033 793.036C821.908 761.813 819.856 721.135 839.57 686.625C858.054 654.578 891.736 636.094 926.648 635.271Z" fill="#FF5713"/>
</g>
<path fill-rule="evenodd" clip-rule="evenodd" d="M974.703 248.255C994.828 283.177 982.917 327.958 948.005 348.089C913.089 368.63 868.318 356.307 847.781 321.385C827.656 286.464 839.568 241.677 874.891 221.547C909.802 201.005 954.573 213.328 974.703 248.255ZM821.495 235.104C801.781 201.828 787.401 191.969 749.615 194.021C668.286 198.13 602.161 260.99 570.531 332.474C549.583 380.958 540.958 435.187 549.995 497.635C569.302 438.885 592.302 384.245 624.339 340.693C641.589 419.167 689.234 425.74 755.776 431.078C812.458 435.599 862.156 454.5 904.875 486.13C914.323 474.63 921.714 463.125 926.646 450.802C935.271 428.203 933.625 405.609 915.964 387.12C879 388.76 842.443 370.276 822.729 336.172C803.833 303.719 805.068 265.51 821.495 235.104Z" fill="#FCAD14"/>
</g>
</g>
<defs>
<clipPath id="clip0_723_57">
<rect width="1053" height="1053" fill="white"/>
</clipPath>
</defs>
</svg>
