<svg width="371" height="350" viewBox="0 0 371 350" fill="none" xmlns="http://www.w3.org/2000/svg">
<path d="M342.178 170.692C342.178 265.349 266.145 341.382 171.488 341.382C76.8315 341.382 0.798828 265.349 0.798828 170.692C0.798828 76.0349 76.8315 0.00219727 171.488 0.00219727C266.145 0.00219727 342.178 76.0349 342.178 170.692ZM280.109 131.126H211.054V62.0712H131.142V131.126H62.0865V211.038H131.142V279.313H211.054V210.266H280.109V131.126Z" fill="#E6E6E6"/>
<path fill-rule="evenodd" clip-rule="evenodd" d="M304.37 298.716C303.346 295.429 301.829 293.786 299.826 293.786C298.129 293.786 296.18 294.397 293.971 295.636C290.37 297.629 288.574 299.713 288.574 301.868C288.574 303.87 289.912 308.8 292.579 316.649C294.95 323.734 296.997 327.658 298.748 328.43C299.413 328.736 301.595 328.888 305.295 328.888C308.941 328.888 311.356 327.963 312.542 326.114C329.496 299.632 347.886 274.488 367.714 250.674C369.411 248.572 370.255 247.162 370.255 246.444C370.255 245.977 369.977 245.591 369.411 245.286C368.845 244.98 367.741 244.828 366.098 244.828C359.156 244.828 354.1 246.669 350.913 250.368C338.637 264.637 325.284 283.315 310.844 306.412C310.126 307.435 309.434 307.947 308.761 307.947C307.89 307.947 306.426 304.867 304.37 298.716ZM268.242 300.368C268.242 273.007 290.539 250.728 317.928 250.728C326.602 250.728 334.334 252.622 341.437 256.547L336.992 262.374C330.922 259.025 325.363 257.956 317.928 257.956C294.454 257.956 275.48 276.922 275.48 300.368C275.48 323.815 294.454 342.762 317.928 342.762C341.392 342.762 360.376 323.815 360.376 300.368C360.376 290.23 358.05 282.13 352.123 274.839L356.802 269.298C363.6 277.964 367.605 288.542 367.605 300.368C367.605 327.73 345.308 350 317.928 350C290.539 350 268.242 327.73 268.242 300.368Z" fill="#059F2A"/>
</svg>
