<svg width="332" height="351" viewBox="0 0 332 351" fill="none" xmlns="http://www.w3.org/2000/svg">
<path fill-rule="evenodd" clip-rule="evenodd" d="M144.371 349.973C222.299 320.349 275.936 249.417 283.757 167.251C276.097 169.909 267.89 171.489 259.359 171.705C250.451 238.129 206.377 297.225 144.533 324.309C144.048 324.524 143.446 324.632 142.908 324.632C142.36 324.632 141.767 324.524 141.273 324.309C70.5208 293.265 24.7682 223.474 24.7682 146.525V90.2481C24.7682 88.6676 25.6932 87.2578 27.103 86.5574L141.166 32.2829C142.252 31.798 143.563 31.798 144.65 32.2829L185.239 51.5538C189.154 44.3878 194.039 37.8774 199.804 32.229L144.65 6.01676C143.563 5.53185 142.252 5.53185 141.166 6.01676L3.41406 71.5789C1.99524 72.2793 1.07031 73.6892 1.07031 75.2696V146.525C1.07031 236.225 57.482 318.014 141.435 349.973C141.929 350.144 142.414 350.252 142.908 350.252C143.393 350.252 143.886 350.144 144.371 349.973ZM142.909 316.11C201.108 289.897 242.46 234.168 251.153 171.488C208.93 168.498 175.462 133.117 175.462 90.2475C175.462 79.1753 177.689 68.588 181.712 58.9256L142.909 40.481L32.9238 92.7978V146.524C32.9238 219.675 76.0093 286.045 142.909 316.11Z" fill="#E6E6E6"/>
<path fill-rule="evenodd" clip-rule="evenodd" d="M183.607 90.2477C183.607 50.1705 216.025 16.873 257.081 16.873C297.562 16.873 330.5 49.8113 330.5 90.2477C330.5 130.379 297.867 163.613 257.081 163.613H256.542C216.321 163.344 183.607 130.406 183.607 90.2477ZM250.337 127.46L302.304 75.5656C308.536 69.3425 308.536 59.2671 302.304 53.044C296.072 46.821 285.987 46.821 279.755 53.044L239.067 93.687L234.362 88.9905C228.336 82.974 217.839 82.965 211.813 88.9905C205.581 95.2136 205.581 105.28 211.813 111.503L227.797 127.46C234.146 133.809 244.249 133.549 250.337 127.46ZM241.949 102.316L285.519 58.8C288.465 55.8636 293.601 55.8636 296.538 58.8C299.6 61.8531 299.573 66.7741 296.538 69.8093L244.571 121.704C241.671 124.605 236.462 124.605 233.553 121.704L217.578 105.747C214.515 102.694 214.542 97.7727 217.578 94.7465C220.64 91.6843 225.561 91.7113 228.596 94.7465L236.184 102.316C237.773 103.906 240.36 103.906 241.949 102.316Z" fill="#E6E6E6"/>
<path fill-rule="evenodd" clip-rule="evenodd" d="M135.07 113.667C136.174 126.095 127.437 136.988 116.302 137.985C105.131 138.982 94.8845 130.783 92.7383 119.774C90.6191 108.764 98.252 97.9884 110.447 95.5728C122.614 93.1482 133.974 101.239 135.07 113.667ZM168.691 124.101C159.073 136.036 149.608 147.288 140.359 157.902C140.045 158.261 139.713 158.575 139.371 158.863C139.093 159.437 138.77 159.967 138.41 160.452C139.973 172.674 140.916 185.021 141.212 197.449C141.051 198.886 140.727 200.251 140.251 201.535C141.059 217.142 140.79 232.92 139.389 248.733C138.815 255.046 133.84 260.668 128.631 261.197C123.414 261.736 119.687 257.201 119.957 251.158C120.639 237.419 120.424 223.742 119.364 210.228C117.49 210.111 115.626 209.986 113.761 209.86L113.752 209.859C110.564 222.916 107.026 235.748 103.128 248.347C101.359 253.924 96.178 256.483 91.5265 254.184C86.8749 251.876 84.136 245.788 85.4201 240.463C88.7607 227.02 91.6881 213.344 94.1935 199.443C93.8882 198.284 93.6996 197.081 93.6816 195.833C94.6066 184.904 95.1723 173.913 95.4058 162.868C94.9478 162.446 94.5257 161.97 94.1486 161.458C93.6098 161.153 93.08 160.793 92.5861 160.371C82.5556 151.769 71.654 143.812 59.9442 136.601C55.3735 133.764 53.9187 128.295 56.9539 124.084C59.9712 119.881 66.4367 118.462 71.1691 121.255C83.1931 128.367 94.4359 136.242 104.817 144.791C105.338 145.213 105.804 145.698 106.2 146.219C112.53 145.698 118.861 145.177 125.183 144.656C125.506 144.055 125.883 143.489 126.332 142.95C135.241 132.309 144.364 121.021 153.622 109.051C157.25 104.364 163.832 103.663 168.08 107.83C172.327 111.988 172.48 119.423 168.691 124.101Z" fill="white"/>
<path d="M116.302 137.985L116.345 138.477L116.346 138.477L116.302 137.985ZM135.07 113.667L134.577 113.711L134.577 113.711L135.07 113.667ZM92.7383 119.774L92.2532 119.867L92.2535 119.868L92.7383 119.774ZM110.447 95.5728L110.543 96.0574L110.543 96.0573L110.447 95.5728ZM140.359 157.902L140.731 158.227L140.732 158.226L140.359 157.902ZM168.691 124.101L168.307 123.791L168.306 123.791L168.691 124.101ZM139.371 158.863L139.053 158.485C139 158.529 138.957 158.585 138.927 158.647L139.371 158.863ZM138.41 160.452L138.013 160.158C137.938 160.26 137.904 160.388 137.92 160.515L138.41 160.452ZM141.212 197.449L141.703 197.504C141.706 197.482 141.707 197.46 141.706 197.437L141.212 197.449ZM140.251 201.535L139.788 201.363C139.765 201.426 139.754 201.494 139.758 201.561L140.251 201.535ZM139.389 248.733L139.881 248.778L139.881 248.777L139.389 248.733ZM128.631 261.197L128.581 260.706L128.581 260.706L128.631 261.197ZM119.957 251.158L119.463 251.133L119.463 251.136L119.957 251.158ZM119.364 210.228L119.857 210.189C119.837 209.944 119.64 209.75 119.395 209.735L119.364 210.228ZM113.761 209.86L113.728 210.353L113.728 210.353L113.761 209.86ZM113.752 209.859L113.785 209.367C113.545 209.35 113.329 209.509 113.272 209.742L113.752 209.859ZM103.128 248.347L103.599 248.497L103.6 248.493L103.128 248.347ZM91.5265 254.184L91.3069 254.627L91.3076 254.627L91.5265 254.184ZM85.4201 240.463L84.9407 240.344L84.9399 240.347L85.4201 240.463ZM94.1935 199.443L94.6797 199.53C94.6925 199.459 94.6896 199.387 94.6712 199.317L94.1935 199.443ZM93.6816 195.833L93.1894 195.791C93.188 195.807 93.1874 195.824 93.1877 195.84L93.6816 195.833ZM95.4058 162.868L95.8997 162.878C95.9027 162.736 95.8447 162.6 95.7406 162.504L95.4058 162.868ZM94.1486 161.458L94.5463 161.165C94.5051 161.109 94.4526 161.062 94.3921 161.028L94.1486 161.458ZM92.5861 160.371L92.2645 160.746L92.2652 160.747L92.5861 160.371ZM59.9442 136.601L59.6837 137.021L59.6852 137.022L59.9442 136.601ZM56.9539 124.084L57.3547 124.372L57.3552 124.372L56.9539 124.084ZM71.1691 121.255L71.4206 120.83L71.4202 120.829L71.1691 121.255ZM104.817 144.791L104.503 145.173L104.506 145.175L104.817 144.791ZM106.2 146.219L105.806 146.518C105.908 146.652 106.072 146.725 106.24 146.711L106.2 146.219ZM125.183 144.656L125.224 145.149C125.39 145.135 125.539 145.038 125.618 144.89L125.183 144.656ZM126.332 142.95L125.954 142.633L125.953 142.634L126.332 142.95ZM153.622 109.051L153.232 108.749L153.232 108.749L153.622 109.051ZM168.08 107.83L167.734 108.183L167.734 108.183L168.08 107.83ZM116.346 138.477C127.783 137.453 136.687 126.292 135.562 113.624L134.577 113.711C135.661 125.899 127.091 136.523 116.258 137.493L116.346 138.477ZM92.2535 119.868C94.4449 131.11 104.906 139.498 116.345 138.477L116.258 137.493C105.355 138.466 95.3242 130.456 93.2232 119.679L92.2535 119.868ZM110.351 95.0882C97.9213 97.5503 90.0767 108.56 92.2532 119.867L93.2235 119.68C91.1615 108.969 98.5827 98.4265 110.543 96.0574L110.351 95.0882ZM135.562 113.624C134.439 100.889 122.793 92.609 110.35 95.0883L110.543 96.0573C122.436 93.6875 133.509 101.589 134.577 113.711L135.562 113.624ZM140.732 158.226C149.985 147.608 159.454 136.351 169.075 124.411L168.306 123.791C158.693 135.721 149.232 146.968 139.987 157.577L140.732 158.226ZM139.689 159.241C140.046 158.941 140.397 158.609 140.731 158.227L139.987 157.576C139.693 157.913 139.379 158.21 139.053 158.485L139.689 159.241ZM138.807 160.746C139.185 160.237 139.524 159.681 139.816 159.078L138.927 158.647C138.662 159.194 138.355 159.698 138.013 160.158L138.807 160.746ZM141.706 197.437C141.409 184.992 140.465 172.628 138.9 160.389L137.92 160.515C139.481 172.72 140.422 185.05 140.718 197.461L141.706 197.437ZM140.715 201.707C141.205 200.384 141.537 198.98 141.703 197.504L140.721 197.394C140.564 198.792 140.25 200.118 139.788 201.363L140.715 201.707ZM139.881 248.777C141.284 232.94 141.554 217.139 140.745 201.51L139.758 201.561C140.565 217.145 140.296 232.899 138.897 248.69L139.881 248.777ZM128.681 261.689C131.442 261.408 134.095 259.787 136.121 257.458C138.149 255.126 139.584 252.046 139.881 248.778L138.897 248.689C138.62 251.733 137.279 254.621 135.375 256.81C133.468 259.003 131.029 260.457 128.581 260.706L128.681 261.689ZM119.463 251.136C119.324 254.261 120.216 257.034 121.86 258.966C123.512 260.907 125.905 261.976 128.682 261.689L128.581 260.706C126.14 260.958 124.062 260.029 122.613 258.326C121.157 256.614 120.32 254.098 120.45 251.18L119.463 251.136ZM118.872 210.266C119.93 223.76 120.145 237.416 119.463 251.133L120.45 251.182C121.134 237.422 120.918 223.724 119.857 210.189L118.872 210.266ZM113.728 210.353C115.592 210.478 117.458 210.604 119.333 210.721L119.395 209.735C117.523 209.618 115.659 209.493 113.794 209.367L113.728 210.353ZM113.718 210.352L113.728 210.353L113.794 209.367L113.785 209.367L113.718 210.352ZM103.6 248.493C107.501 235.885 111.041 223.043 114.232 209.977L113.272 209.742C110.086 222.79 106.551 235.612 102.657 248.201L103.6 248.493ZM91.3076 254.627C96.2847 257.087 101.758 254.301 103.599 248.497L102.658 248.198C100.961 253.547 96.0713 255.879 91.7453 253.741L91.3076 254.627ZM84.9399 240.347C83.6051 245.882 86.4362 252.21 91.3069 254.627L91.746 253.742C87.3136 251.543 84.667 245.694 85.9004 240.579L84.9399 240.347ZM93.7073 199.355C91.2038 213.246 88.2786 226.911 84.9407 240.344L85.8996 240.582C89.2427 227.129 92.1724 213.442 94.6797 199.53L93.7073 199.355ZM93.1877 195.84C93.2063 197.134 93.4017 198.377 93.7158 199.569L94.6712 199.317C94.3746 198.192 94.1929 197.028 94.1756 195.826L93.1877 195.84ZM94.9119 162.857C94.6786 173.893 94.1134 184.874 93.1894 195.791L94.1739 195.875C95.0997 184.935 95.666 173.933 95.8997 162.878L94.9119 162.857ZM93.7509 161.751C94.1455 162.286 94.5884 162.786 95.071 163.231L95.7406 162.504C95.3072 162.105 94.906 161.653 94.5463 161.165L93.7509 161.751ZM92.2652 160.747C92.7863 161.192 93.3427 161.569 93.905 161.888L94.3921 161.028C93.8768 160.736 93.3737 160.394 92.907 159.996L92.2652 160.747ZM59.6852 137.022C71.3734 144.22 82.254 152.161 92.2645 160.746L92.9077 159.996C82.8572 151.376 71.9346 143.405 60.2033 136.181L59.6852 137.022ZM56.5531 123.795C53.3247 128.274 54.909 134.057 59.6837 137.021L60.2048 136.182C55.8379 133.471 54.5127 128.316 57.3547 124.372L56.5531 123.795ZM71.4202 120.829C66.4713 117.909 59.7216 119.382 56.5526 123.795L57.3552 124.372C60.2208 120.38 66.402 119.015 70.918 121.68L71.4202 120.829ZM105.131 144.41C94.7298 135.844 83.466 127.954 71.4206 120.83L70.9176 121.68C82.9202 128.779 94.1421 136.64 104.503 145.172L105.131 144.41ZM106.593 145.92C106.174 145.368 105.68 144.855 105.128 144.407L104.506 145.175C104.995 145.572 105.435 146.028 105.806 146.518L106.593 145.92ZM125.142 144.164C118.821 144.685 112.49 145.206 106.159 145.727L106.24 146.711C112.571 146.19 118.902 145.67 125.224 145.149L125.142 144.164ZM125.953 142.634C125.482 143.199 125.086 143.793 124.748 144.423L125.618 144.89C125.926 144.317 126.285 143.779 126.712 143.267L125.953 142.634ZM153.232 108.749C143.977 120.714 134.858 131.997 125.954 142.633L126.711 143.267C135.623 132.622 144.751 121.329 154.013 109.353L153.232 108.749ZM168.426 107.477C163.951 103.088 157.026 103.846 153.232 108.749L154.013 109.354C157.474 104.882 163.714 104.239 167.734 108.183L168.426 107.477ZM169.074 124.412C173.01 119.554 172.871 111.829 168.426 107.477L167.734 108.183C171.784 112.147 171.95 119.292 168.307 123.791L169.074 124.412Z" fill="#A8A8A8"/>
<path fill-rule="evenodd" clip-rule="evenodd" d="M209.229 299.012C208.206 295.735 206.688 294.091 204.686 294.091C202.988 294.091 201.04 294.702 198.831 295.932C195.239 297.935 193.434 300.018 193.434 302.173C193.434 304.176 194.772 309.097 197.448 316.954C199.809 324.03 201.866 327.963 203.608 328.727C204.272 329.041 206.464 329.194 210.154 329.194C213.809 329.194 216.216 328.269 217.401 326.419C234.355 299.937 252.746 274.794 272.573 250.979C274.271 248.878 275.115 247.468 275.115 246.749C275.115 246.282 274.836 245.896 274.271 245.591C273.705 245.286 272.6 245.124 270.957 245.124C264.025 245.124 258.96 246.974 255.772 250.674C243.497 264.934 230.144 283.621 215.704 306.717C214.985 307.741 214.294 308.253 213.629 308.253C212.749 308.253 211.286 305.173 209.229 299.012ZM173.391 300.62C173.391 273.258 195.688 250.979 223.076 250.979C231.751 250.979 239.483 252.874 246.595 256.798L242.15 262.626C236.07 259.277 230.512 258.208 223.076 258.208C199.603 258.208 180.628 277.174 180.628 300.62C180.628 324.066 199.603 343.014 223.076 343.014C246.541 343.014 265.524 324.066 265.524 300.62C265.524 290.482 263.198 282.382 257.272 275.081L261.95 269.55C268.748 278.215 272.762 288.785 272.762 300.62C272.762 327.973 250.465 350.252 223.076 350.252C195.688 350.252 173.391 327.973 173.391 300.62Z" fill="#059F2A"/>
</svg>
