<svg width="348" height="351" viewBox="0 0 348 351" fill="none" xmlns="http://www.w3.org/2000/svg">
<path d="M145.073 0.817383C65.529 0.817383 0.972656 65.1044 0.972656 144.496C0.972656 184.151 17.1005 220.061 43.1961 246.076L145.073 345.645L246.995 246.049C273.081 220.061 289.209 184.151 289.182 144.469C289.182 65.1762 224.671 0.817383 145.073 0.817383ZM226.628 225.701L145.073 305.397L63.3739 225.53C41.7862 204.041 29.7891 175.18 29.7891 144.496C29.7891 81.1155 81.5132 29.553 145.073 29.553C175.865 29.553 204.825 41.5232 226.601 63.2276C248.368 84.9499 260.366 113.793 260.366 144.469C260.393 175.18 248.395 204.014 226.628 225.701Z" fill="#E6E6E6"/>
<path d="M145.074 72.6562L73.0195 144.495H94.6431V201.958H130.67V158.863H159.487V201.958H195.514V144.495H217.129L145.074 72.6562Z" fill="#E6E6E6"/>
<path fill-rule="evenodd" clip-rule="evenodd" d="M280.895 299.012C279.872 295.735 278.354 294.091 276.352 294.091C274.654 294.091 272.706 294.702 270.497 295.932C266.905 297.935 265.1 300.018 265.1 302.173C265.1 304.176 266.438 309.097 269.114 316.954C271.475 324.03 273.532 327.963 275.274 328.727C275.938 329.041 278.13 329.194 281.82 329.194C285.475 329.194 287.882 328.269 289.067 326.419C306.021 299.937 324.412 274.794 344.239 250.979C345.937 248.878 346.781 247.468 346.781 246.749C346.781 246.282 346.502 245.896 345.937 245.591C345.371 245.286 344.266 245.124 342.623 245.124C335.691 245.124 330.626 246.974 327.438 250.674C315.163 264.934 301.81 283.621 287.37 306.717C286.651 307.741 285.96 308.253 285.296 308.253C284.415 308.253 282.952 305.173 280.895 299.012ZM245.057 300.62C245.057 273.258 267.354 250.979 294.742 250.979C303.417 250.979 311.149 252.874 318.261 256.798L313.816 262.626C307.736 259.277 302.178 258.208 294.742 258.208C271.269 258.208 252.294 277.174 252.294 300.62C252.294 324.066 271.269 343.014 294.742 343.014C318.207 343.014 337.19 324.066 337.19 300.62C337.19 290.482 334.864 282.382 328.938 275.081L333.616 269.55C340.414 278.215 344.428 288.785 344.428 300.62C344.428 327.973 322.131 350.252 294.742 350.252C267.354 350.252 245.057 327.973 245.057 300.62Z" fill="#059F2A"/>
</svg>
