<svg width="219" height="350" viewBox="0 0 219 350" fill="none" xmlns="http://www.w3.org/2000/svg">
<path fill-rule="evenodd" clip-rule="evenodd" d="M99.028 0.000211574C96.0745 0.0527946 93.7082 2.48043 93.7696 5.44267L93.7871 41.1385C93.6206 44.2322 96.0482 46.8089 99.1419 46.8089C102.209 46.8089 104.637 44.2322 104.462 41.1385L104.427 5.40761C104.462 2.40155 102.017 -0.0260811 99.028 0.000211574ZM52.0274 13.1113C50.5112 9.58811 53.0878 5.67936 56.9177 5.66183C59.1175 5.66183 61.1157 7.00273 61.9307 9.04474L75.883 43.0316C77.1363 45.7835 75.8655 49.0437 73.0698 50.1918C70.2741 51.3399 67.084 49.9377 66.0147 47.0981L52.0274 13.1113ZM164.609 140.444L143.716 39.6052C142.822 35.3021 139.535 34.005 134.216 36.7569C129.185 39.351 124.268 46.5726 125.478 57.8606L130.508 105.16C131.024 110.029 131.859 110.548 135.882 113.048L136.135 113.205C140.009 115.624 142.217 119.594 143.882 123.941L158.089 162.328C159.78 166.903 163.733 167.297 165.696 162.258C167.396 157.867 166.844 151.285 164.609 140.444ZM119.712 113.941L24.9903 88.1487C20.4593 86.9042 16.6469 87.5176 16.533 92.9163C16.4366 97.4122 22.0193 105.396 35.8577 111.251L84.2526 131.837C88.2139 133.52 90.9571 133.59 95.4793 133.204L106.566 132.311C115.645 131.557 122.543 136 126.145 145.22L145.443 194.745C147.248 199.39 143.568 200.749 141.499 196.209L119.458 148.077C117.223 143.178 114.164 139.024 107.118 139.602L65.2872 143.003C57.4259 143.642 55.5066 144.904 49.5646 149.821L17.6022 176.297C16.3402 177.349 15.7442 178.795 18.3822 180.819C20.4155 182.344 24.6047 183.641 30.6781 182.283C33.5527 181.643 35.0864 180.513 37.2248 177.796L42.3518 171.249C45.1388 167.665 50.2307 163.239 57.8115 162.73L91.702 160.513C100.115 159.952 107.653 163.773 111.281 170.846L133.743 214.929C136.644 220.617 138.09 225.56 138.537 230.091C145.119 228.075 151.026 219.697 149.939 211.353C149.72 209.706 150.141 208.014 151.788 207.935C161.963 207.602 166.591 201.511 163.295 190.548L137.073 126.544C134.286 119.769 127.994 116.194 119.712 113.941ZM9.95876 97.0792C11.7642 104.108 18.3284 111.329 29.7655 116.509C32.9556 117.955 33.1133 118.306 33.9021 121.382C36.3735 130.838 37.1009 137.402 34.5418 149.243C33.6654 153.204 33.2798 153.844 30.1949 156.403L12.9122 170.714C10.397 172.8 9.05607 175.947 9.38034 178.979C9.69584 181.994 11.4486 184.702 14.0253 186.621C17.3293 189.084 21.9655 190.407 27.6095 190.065L17.2592 203.273C16.2689 204.552 16.2163 206.358 17.1978 207.681C19.941 211.432 23.6131 213.947 27.6533 214.92C31.7286 215.893 36.0054 215.367 40.3349 213.851C48.1261 211.125 56.2766 204.675 64.5762 196.481C65.5058 195.543 65.8461 195.758 66.631 196.255L66.6971 196.297C71.3683 199.268 76.4777 200.337 81.8413 200.46L81.791 200.748C80.8733 206.006 80.0828 210.535 83.6204 214.666C85.6186 217.032 85.0226 217.33 83.4451 218.093C77.3103 221.073 72.9633 226.121 70.9827 231.02C70.2504 232.794 69.5637 232.916 68.2447 233.151L68.2443 233.151L68.2396 233.152C68.0288 233.19 67.8018 233.23 67.5559 233.281C56.6009 235.481 48.5993 240.082 42.6573 245.612C35.9003 251.878 33.1133 259.187 32.1142 271.15C31.7286 275.558 36.3735 275.795 37.0396 272.088C40.2034 253.999 50.2996 244.779 65.1633 240.862C68.257 240.055 70.0449 240.432 71.044 241.615C71.7295 242.406 72.2835 243.17 72.829 243.922C74.285 245.93 75.68 247.853 79.3523 249.976C82.6739 251.904 84.7422 248.854 81.0613 246.103C69.8609 237.759 80.1673 222.527 90.0882 220.994C92.77 220.591 93.3484 218.794 91.5431 216.796C87.424 210.985 86.2145 205.7 89.2995 197.313C89.8954 195.666 88.4756 194.176 85.9341 194.824C78.6512 195.718 73.5418 193.755 66.8285 188.803C65.3562 187.717 63.3141 187.892 62.0609 189.198C53.2793 198.321 44.7432 204.701 37.9511 207.015C34.2263 208.295 31.3255 208.61 28.6174 207.602C25.4097 206.375 26.1284 203.807 27.2151 202.414L48.091 175.736C50.1068 173.133 53.2793 170.329 58.2924 170.005L92.2179 167.796C98.379 167.384 102.419 169.575 104.768 174.15L127.256 218.251C131.095 225.726 131.901 230.818 131.349 235.244C130.788 239.687 128.703 243.806 125.863 248.898L103.681 288.783C101.674 292.359 101.315 294.392 101.315 298.301L101.332 327.485C101.332 331.639 99.5271 336.53 92.919 336.53H19.7745C14.1041 336.53 12.7457 333.787 12.7457 329.124V312.849C12.7194 310.807 14.1918 307.977 17.1277 310.536C28.9504 320.79 42.2016 321.824 57.4335 316.618C62.0521 315.067 60.5447 310.334 55.9173 311.92C39.0115 317.661 23.7533 312.28 12.0884 294.392C0.414745 276.523 -0.733344 261.992 2.43923 236.488C7.71517 193.957 5.28754 150.338 1.90463 103.047C1.73811 100.646 1.8871 98.4989 2.78103 96.9652C5.43653 92.4255 8.9509 93.2493 9.95876 97.0792ZM19.4056 40.876C15.9613 37.5369 18.3452 31.7 23.1654 31.7263C24.6027 31.7 25.9874 32.296 26.9952 33.3389L52.0428 58.6231C54.2338 60.7002 54.2776 64.1532 52.1217 66.2916C50.0008 68.395 46.5303 68.3424 44.4795 66.1339L19.4056 40.876Z" fill="#E6E6E6"/>
<path fill-rule="evenodd" clip-rule="evenodd" d="M154.186 299.855C153.187 296.656 151.706 295.052 149.752 295.052C148.095 295.052 146.193 295.648 144.037 296.849C140.532 298.803 138.77 300.836 138.77 302.94C138.77 304.894 140.076 309.697 142.688 317.365C144.993 324.271 147 328.11 148.7 328.855C149.348 329.162 151.487 329.311 155.089 329.311C158.656 329.311 161.005 328.408 162.161 326.602C178.708 300.757 196.657 276.218 216.008 252.976C217.664 250.925 218.488 249.549 218.488 248.848C218.488 248.392 218.216 248.015 217.664 247.717C217.112 247.419 216.034 247.262 214.43 247.262C207.664 247.262 202.721 249.067 199.61 252.678C187.63 266.595 174.598 284.833 160.505 307.374C159.804 308.373 159.129 308.873 158.481 308.873C157.622 308.873 156.193 305.867 154.186 299.855ZM119.209 301.424C119.209 274.72 140.97 252.976 167.7 252.976C176.166 252.976 183.712 254.825 190.653 258.655L186.315 264.343C180.382 261.074 174.957 260.031 167.7 260.031C144.791 260.031 126.273 278.541 126.273 301.424C126.273 324.307 144.791 342.799 167.7 342.799C190.601 342.799 209.128 324.307 209.128 301.424C209.128 291.529 206.858 283.624 201.074 276.499L205.64 271.1C212.274 279.557 216.192 289.873 216.192 301.424C216.192 328.119 194.431 349.862 167.7 349.862C140.97 349.862 119.209 328.119 119.209 301.424Z" fill="#059F2A"/>
</svg>
