<svg width="24" height="24" viewBox="0 0 24 24" fill="none" xmlns="http://www.w3.org/2000/svg">
<path d="M18.9392 17.5826H17.6348V16.8C17.6348 16.3826 17.8435 16.1739 18.2609 16.1739H18.3131C18.7305 16.1739 18.9392 16.3826 18.9392 16.8V17.5826ZM13.9827 15.913C13.5653 15.913 13.3566 16.087 13.3566 16.4348V20.1391C13.3566 20.487 13.5653 20.6609 13.9827 20.6609C14.4001 20.6609 14.6088 20.487 14.6088 20.1391V16.4348C14.6088 16.087 14.4001 15.913 13.9827 15.913ZM22.0174 13.8261V20.9217C22.0174 21.7913 21.6957 22.5217 21.0522 23.113C20.4088 23.7043 19.6348 24 18.7305 24H5.26962C4.36527 24 3.59136 23.7043 2.94788 23.113C2.30441 22.5217 1.98267 21.7913 1.98267 20.9217V13.8261C1.98267 12.9913 2.30441 12.2696 2.94788 11.6609C3.59136 11.0522 4.36527 10.7478 5.26962 10.7478H18.7305C19.6348 10.7478 20.4088 11.0522 21.0522 11.6609C21.6957 12.2696 22.0174 12.9913 22.0174 13.8261ZM6.15658 21.7043V14.2435H7.82614V13.1478L3.39136 13.0957V14.1913H4.74788V21.7043H6.15658ZM11.1653 15.3391H9.75658V20.2957C9.68701 20.4696 9.56527 20.5826 9.39136 20.6348C9.21745 20.687 9.07832 20.5913 8.97397 20.3478V19.3565L8.9218 15.3391H7.56527V20.5565C7.63484 21.1478 7.75658 21.4957 7.93049 21.6C8.24354 21.8087 8.63484 21.8174 9.10441 21.6261C9.57397 21.4348 9.89571 21.1826 10.0696 20.8696V21.7043H11.1653V15.3391ZM15.6001 19.9304V16.5913C15.6001 15.9304 15.3914 15.4783 14.974 15.2348C14.5566 14.9913 14.0348 15.113 13.4088 15.6V13.1478H12.0001V21.6522H13.1479L13.2522 21.0783C13.9827 21.7043 14.5653 21.8783 15.0001 21.6C15.4348 21.3217 15.6348 20.7652 15.6001 19.9304ZM19.9827 19.4609H18.9392V20.1913C18.9392 20.5739 18.7479 20.7652 18.3653 20.7652H18.1566C17.774 20.7652 17.5827 20.5739 17.5827 20.1913V18.6783H19.9827V17.7913C19.9827 16.887 19.9653 16.313 19.9305 16.0696C19.8261 15.513 19.4522 15.1652 18.8088 15.0261C18.1653 14.887 17.6348 14.9739 17.2174 15.287C16.9392 15.5304 16.7479 15.7913 16.6435 16.0696C16.5392 16.4174 16.487 16.887 16.487 17.4783V19.4609C16.487 20.7478 16.974 21.4957 17.9479 21.7043C18.7827 21.8783 19.3914 21.6 19.774 20.8696C20.0174 20.487 20.087 20.0174 19.9827 19.4609ZM14.6088 8.71304C14.6783 8.88696 14.8001 9.02609 14.974 9.13043C15.1131 9.23478 15.3044 9.28696 15.5479 9.28696C15.7566 9.28696 15.9305 9.23478 16.0696 9.13043C16.2088 9.02609 16.3305 8.86957 16.4348 8.66087V9.18261H18.0001V2.55652H16.7479V7.72174C16.7479 8.06957 16.574 8.24348 16.2261 8.24348C15.9131 8.24348 15.7566 8.06957 15.7566 7.72174V2.55652H14.4522V7.04348C14.4522 7.66957 14.4696 8.05217 14.5044 8.1913C14.5044 8.33043 14.5392 8.50435 14.6088 8.71304ZM9.9131 5.0087C9.9131 4.38261 9.96527 3.87826 10.0696 3.49565C10.174 3.18261 10.3653 2.90435 10.6435 2.66087C10.9218 2.45217 11.2696 2.34783 11.687 2.34783C12.0696 2.34783 12.3827 2.41739 12.6261 2.55652C12.8696 2.66087 13.0609 2.83478 13.2001 3.07826C13.3392 3.25217 13.4435 3.47826 13.5131 3.75652C13.5479 3.93043 13.5653 4.29565 13.5653 4.85217V6.52174C13.5653 7.21739 13.5479 7.66957 13.5131 7.87826C13.4783 8.12174 13.374 8.38261 13.2001 8.66087C13.0957 8.83478 12.9044 9.02609 12.6261 9.23478C12.3479 9.33913 12.0696 9.3913 11.7914 9.3913C11.4435 9.3913 11.1305 9.33913 10.8522 9.23478C10.6088 9.13043 10.4174 8.97391 10.2783 8.76522C10.1392 8.48696 10.0522 8.24348 10.0174 8.03478C9.94788 7.68696 9.9131 7.25217 9.9131 6.73043V5.0087ZM11.1131 7.61739C11.1131 7.7913 11.174 7.94783 11.2957 8.08696C11.4174 8.22609 11.5653 8.29565 11.7392 8.29565C12.1566 8.29565 12.3653 8.06957 12.3653 7.61739V4.12174C12.3653 3.66957 12.1566 3.44348 11.7392 3.44348C11.3218 3.44348 11.1131 3.66957 11.1131 4.12174V7.61739ZM6.83484 9.3913H8.29571V4.33043L10.0174 0H8.45223L7.5131 3.23478L6.57397 0H5.00875L6.83484 4.33043V9.3913Z" fill="black"/>
</svg>
