<svg width="470" height="350" viewBox="0 0 470 350" fill="none" xmlns="http://www.w3.org/2000/svg">
<path fill-rule="evenodd" clip-rule="evenodd" d="M320.287 21.4261H286.7C285.095 21.4261 283.792 20.1318 283.792 18.5277V3.10579C283.792 1.50163 285.095 0.198242 286.7 0.198242H320.287C321.9 0.198242 323.203 1.50163 323.203 3.10579V18.5277C323.203 20.1318 321.9 21.4261 320.287 21.4261ZM288.935 44.6807L289.219 44.6538C337.426 40.1329 384.311 57.2228 416.613 93.2892L399.861 104.035C371.806 72.6993 332.978 60.7045 291.096 64.6238C255.741 67.9415 223.794 84.7853 201.144 112.065C178.495 139.345 167.849 173.78 171.176 209.044C178.03 281.843 240.93 334.534 314.174 337.669C323.799 338.08 334.208 337.059 344.344 334.935C345.109 337.751 346.276 340.413 347.798 342.819C338.128 345.727 328.129 347.668 317.857 348.625C306.916 349.654 296.129 349.499 285.629 348.266L286.292 348.845L0.0390625 339.821L233.744 332.454C223.185 327.036 213.307 320.421 204.307 312.772L38.0469 308.517L195.303 304.484C186.883 296.092 179.421 286.713 173.118 276.511L61.1455 272.455L168.543 268.582C163.631 259.442 159.617 249.723 156.63 239.533L48.4512 235.576L154.56 231.702C152.968 224.953 151.82 218.016 151.151 210.922C150.926 208.536 150.757 206.154 150.642 203.776L41.5059 198.525L150.495 193.28C150.681 183.982 151.712 174.791 153.56 165.798L89.4668 162.183L155.26 158.456C157.937 148.088 161.717 138.023 166.555 128.408L102.024 124.76L170.611 120.883C174.956 113.337 179.979 106.107 185.659 99.2683C187.972 96.4827 190.37 93.7915 192.847 91.1973L131.631 87.737L200.354 83.8523C213.183 72.1292 227.796 62.7746 243.643 56.0788L129.225 51.3219L288.935 44.6807ZM293.656 40.888H313.344V24.3086H293.656V40.888ZM251.962 102.236L244.169 88.7646L239.557 91.417L247.359 104.897C248.863 103.977 250.403 103.084 251.962 102.236ZM305.186 89.1921L305.186 89.1921C304.631 89.1743 304.078 89.1566 303.521 89.1566C302.808 89.1566 302.107 89.1798 301.404 89.203C301.226 89.2089 301.047 89.2148 300.868 89.2204L300.877 73.6162H306.191V89.2204C305.855 89.2135 305.521 89.2028 305.186 89.1921ZM211.545 140.599L198.037 132.815L195.376 137.409L208.884 145.193C209.731 143.634 210.625 142.103 211.545 140.599ZM367.512 91.4375L359.701 104.909C358.188 103.988 356.656 103.104 355.098 102.257L362.909 88.7852L367.512 91.4375ZM195.75 196.64C195.75 196.103 195.769 195.569 195.789 195.037C195.802 194.684 195.815 194.331 195.823 193.979L180.173 193.97V199.284H195.823C195.815 198.936 195.802 198.589 195.789 198.24L195.789 198.239C195.77 197.71 195.75 197.179 195.75 196.64ZM195.355 255.846L208.863 248.062C209.72 249.621 210.604 251.152 211.534 252.656L198.017 260.44L195.355 255.846ZM303.521 304.129C302.877 304.129 302.242 304.105 301.607 304.082L301.594 304.082C301.343 304.073 301.092 304.063 300.841 304.056V319.66L306.164 319.669V304.065C305.934 304.07 305.706 304.076 305.477 304.083C305.374 304.086 305.272 304.09 305.169 304.093L305.167 304.093C304.618 304.111 304.071 304.129 303.521 304.129ZM239.529 301.848L247.331 288.367C248.844 289.288 250.376 290.181 251.934 291.029L244.141 304.5L239.529 301.848Z" fill="#D9D9D9"/>
<path d="M274.352 224.497L294.312 204.636" stroke="#333333" stroke-width="8.35056" stroke-miterlimit="10"/>
<path fill-rule="evenodd" clip-rule="evenodd" d="M401.813 297.947C400.774 294.611 399.233 292.943 397.201 292.943C395.478 292.943 393.5 293.562 391.258 294.82C387.603 296.844 385.78 298.958 385.78 301.146C385.78 303.178 387.138 308.182 389.845 316.148C392.252 323.34 394.33 327.323 396.107 328.107C396.782 328.417 398.996 328.572 402.752 328.572C406.452 328.572 408.904 327.633 410.107 325.755C427.315 298.876 445.982 273.355 466.107 249.184C467.83 247.051 468.687 245.62 468.687 244.891C468.687 244.417 468.404 244.025 467.83 243.715C467.256 243.405 466.134 243.25 464.466 243.25C457.421 243.25 452.289 245.118 449.054 248.874C436.594 263.357 423.041 282.315 408.384 305.758C407.655 306.797 406.953 307.316 406.27 307.316C405.386 307.316 403.9 304.19 401.813 297.947ZM365.143 299.624C365.143 271.852 387.774 249.238 415.574 249.238C424.378 249.238 432.226 251.161 439.436 255.145L434.924 261.06C428.762 257.66 423.12 256.576 415.574 256.576C391.748 256.576 372.489 275.826 372.489 299.624C372.489 323.422 391.748 342.654 415.574 342.654C439.39 342.654 458.658 323.422 458.658 299.624C458.658 289.333 456.298 281.112 450.282 273.711L455.031 268.087C461.93 276.883 465.995 287.62 465.995 299.624C465.995 327.396 443.364 350 415.574 350C387.774 350 365.143 327.396 365.143 299.624Z" fill="#059F2A"/>
<path fill-rule="evenodd" clip-rule="evenodd" d="M324.939 183.892C325.783 185.567 326.426 187.376 326.83 189.297C329.336 201.255 321.653 212.976 309.676 215.474C297.691 217.98 285.942 210.324 283.426 198.366C280.911 186.416 288.594 174.704 300.58 172.189C305.71 171.119 310.798 171.911 315.136 174.103L389.829 109.543L324.939 183.892ZM295.95 195.75C297.007 200.808 301.974 204.044 307.051 202.987C312.119 201.929 315.364 196.971 314.297 191.922C313.24 186.863 308.273 183.627 303.205 184.685C298.137 185.742 294.892 190.7 295.95 195.75Z" fill="#D9D9D9"/>
</svg>
