<svg width="396" height="350" viewBox="0 0 396 350" fill="none" xmlns="http://www.w3.org/2000/svg">
<path fill-rule="evenodd" clip-rule="evenodd" d="M265.828 242.332C270.225 253.367 270.447 264.58 266.485 275.669C266.306 276.26 265.976 277.178 265.49 278.328C270.813 277.679 275.865 280.663 277.86 285.682L283.146 298.949C285.562 305.005 282.595 311.896 276.554 314.315L189.886 348.924C183.836 351.333 176.951 348.372 174.543 342.317L169.258 329.049C168.121 326.186 168.138 323.038 169.311 320.184C170.394 317.528 172.369 315.395 174.9 314.123C164.952 310.348 157.108 305.583 148.919 298.451C137.886 290.137 117.249 270.574 116.378 269.747L116.272 269.64L100.201 253.376C96.8255 249.259 95.715 243.844 97.2608 238.544C98.2202 235.28 100.29 232.453 103 230.398L103.097 230.318C103.199 230.242 103.306 230.165 103.418 230.085C103.461 230.054 103.505 230.022 103.55 229.989C107.966 226.913 113.829 226.859 118.439 229.66L134.919 239.664C135.105 239.78 135.318 239.593 135.238 239.397L103.542 160.541C99.8015 151.142 104.385 140.462 113.758 136.718L114.015 136.621C123.388 132.877 134.048 137.465 137.788 146.847L147.649 171.407L147.684 171.389L153.414 185.777L153.734 186.568C155.671 184.061 158.274 182.033 161.41 180.771L161.676 180.673C168.632 177.89 176.299 179.704 181.318 184.657C183.308 181.482 186.284 178.886 190.015 177.4L190.273 177.294C197.326 174.484 205.099 176.378 210.119 181.482C212.109 178.361 215.049 175.809 218.745 174.333L219.002 174.226C228.392 170.482 239.035 175.062 242.784 184.47L265.828 242.332ZM187.87 308.883C187.805 308.868 187.741 308.853 187.679 308.837L183.45 307.494C169.867 303.164 162.147 297.971 154.747 291.506L154.489 291.293C144.166 283.539 123.823 264.305 122.659 263.202L107.095 247.481C105.762 245.764 105.309 243.568 105.878 241.407C106.278 239.895 107.21 238.588 108.445 237.646L108.57 237.557C109.067 237.174 109.609 236.872 110.186 236.641C112.407 235.752 114.984 236.09 116.903 237.53L129.775 247.16L129.722 247.027L136.784 252.265C142.23 256.293 149.532 250.646 147 244.35L111.954 157.162C110.062 152.431 112.381 147.033 117.107 145.148L117.373 145.042C122.099 143.156 127.483 145.468 129.375 150.217L139.227 174.768L157.758 221.284C158.673 223.596 161.294 224.725 163.613 223.8L163.693 223.765C166.002 222.84 167.131 220.217 166.207 217.905L159.571 201.232L159.606 201.223C157.723 196.483 160.042 191.095 164.777 189.201L165.025 189.103C169.769 187.209 175.144 189.521 177.027 194.269L179.799 201.205L179.834 201.187L186.115 216.962C187.039 219.274 189.66 220.412 191.969 219.488L192.058 219.452C194.368 218.527 195.496 215.904 194.572 213.592L187.856 196.732C186.71 192.295 189.011 187.564 193.373 185.821L193.631 185.724C198.232 183.892 203.411 186.017 205.446 190.472L214.605 213.468C215.529 215.78 218.149 216.909 220.459 215.984L220.539 215.957C222.858 215.033 223.977 212.409 223.062 210.089L216.826 194.447C215.173 189.796 217.483 184.603 222.103 182.763L222.36 182.665C227.095 180.771 232.47 183.083 234.362 187.822L252.44 233.217L257.406 245.693C260.969 254.63 261.146 263.7 257.939 272.655L257.833 272.957L257.815 273.028C257.646 273.544 257.007 275.313 255.71 277.83C254.825 279.571 253.814 281.299 252.692 282.998L187.87 308.883ZM274.964 302.212L269.687 288.945C269.065 287.407 267.315 286.66 265.779 287.273L179.11 321.882C177.573 322.487 176.827 324.247 177.44 325.786L182.725 339.053C183.329 340.591 185.088 341.338 186.625 340.725L273.285 306.116C274.822 305.511 275.577 303.751 274.964 302.212Z" fill="#DDD8D8"/>
<path fill-rule="evenodd" clip-rule="evenodd" d="M72.3167 165.947C62.3137 140.853 74.5731 112.282 99.6428 102.27C124.712 92.2659 153.238 104.546 163.232 129.64C169.148 144.49 167.416 161.359 158.612 174.768L157.991 175.711L155.05 168.313L155.174 168.064C161.206 156.895 161.979 143.752 157.298 132.014C148.609 110.184 123.806 99.5131 102.006 108.219C80.2142 116.924 69.5539 141.76 78.2509 163.573C83.1814 175.969 93.3976 185.163 106.279 188.8L106.554 188.872L109.45 196.083L108.393 195.879C91.9762 192.642 78.4908 181.455 72.3167 165.947ZM104.726 115.039C122.769 107.836 143.29 116.666 150.486 134.727C153.364 141.965 153.781 149.755 151.685 157.251L151.223 158.914L146.603 147.398V147.291C146.541 143.797 145.857 140.364 144.551 137.101C138.661 122.322 121.862 115.084 107.098 120.979C92.3332 126.875 85.1019 143.708 91.0007 158.487C92.6886 162.72 95.2648 166.392 98.6584 169.398L98.765 169.495L102.905 179.784L101.492 179.046C94.0211 175.151 88.1757 168.686 85.0575 160.861C77.8707 142.792 86.6921 122.242 104.726 115.039Z" fill="#DDD8D8"/>
<path fill-rule="evenodd" clip-rule="evenodd" d="M153.15 337.275H40.0789C24.2305 337.275 11.3492 324.372 11.3492 308.518V39.295C11.3492 23.4311 24.2305 10.5285 40.0789 10.5285H153.15C168.998 10.5285 181.88 23.4311 181.88 39.295V170.874C183.328 169.958 184.865 169.167 186.481 168.518L186.739 168.42C188.578 167.682 190.47 167.157 192.389 166.837V39.295C192.389 17.6245 174.791 0 153.15 0H40.0789C18.4384 0 0.839844 17.6245 0.839844 39.295V308.518C0.839844 330.179 18.4384 347.804 40.0789 347.804H153.15C157.521 347.804 161.714 347.083 165.632 345.767L161.732 335.968C159.022 336.822 156.144 337.275 153.15 337.275ZM109.797 38.8499H83.4304C80.5521 38.8499 78.2246 36.5201 78.2246 33.6479V33.5412C78.2246 30.6601 80.5521 28.3303 83.4304 28.3303H109.797C112.675 28.3303 115.003 30.6601 115.003 33.5412V33.6479C115.003 36.5201 112.675 38.8499 109.797 38.8499ZM83.804 320.477H109.424C114.248 320.477 118.166 316.565 118.166 311.727V311.55C118.166 306.721 114.248 302.8 109.424 302.8H83.804C78.9802 302.8 75.0625 306.721 75.0625 311.55V311.727C75.0625 316.565 78.9802 320.477 83.804 320.477Z" fill="#DDD8D8"/>
<path fill-rule="evenodd" clip-rule="evenodd" d="M330.591 296.095C329.579 292.849 328.077 291.222 326.096 291.222C324.417 291.222 322.489 291.827 320.304 293.045C316.751 295.028 314.965 297.091 314.965 299.225C314.965 301.208 316.289 306.081 318.936 313.862C321.272 320.869 323.307 324.764 325.03 325.52C325.688 325.831 327.855 325.982 331.506 325.982C335.122 325.982 337.503 325.066 338.675 323.234C355.448 297.011 373.642 272.113 393.257 248.53C394.936 246.449 395.771 245.053 395.771 244.342C395.771 243.88 395.495 243.497 394.936 243.195C394.376 242.892 393.283 242.732 391.658 242.732C384.799 242.732 379.789 244.564 376.635 248.228C364.491 262.349 351.281 280.854 336.996 303.725C336.286 304.738 335.602 305.245 334.944 305.245C334.074 305.245 332.626 302.195 330.591 296.095ZM295.137 297.687C295.137 270.592 317.195 248.53 344.29 248.53C352.872 248.53 360.52 250.407 367.556 254.293L363.159 260.064C357.145 256.747 351.646 255.689 344.29 255.689C321.068 255.689 302.297 274.469 302.297 297.687C302.297 320.905 321.068 339.667 344.29 339.667C367.503 339.667 386.283 320.905 386.283 297.687C386.283 287.648 383.982 279.627 378.119 272.397L382.747 266.92C389.472 275.501 393.443 285.967 393.443 297.687C393.443 324.773 371.385 346.835 344.29 346.835C317.195 346.835 295.137 324.773 295.137 297.687Z" fill="#059F2A"/>
</svg>
